<svg xmlns="http://www.w3.org/2000/svg" id="main-card" viewBox="0 0 1555 856"><path fill="none" d="M0 0h1555v856H0Z"/><path fill="rgba(68, 68, 70, 1)" d="M80 50h1400l30 40v690q2 0-10 20H60q-15 0-15-15V85Z"/><path fill="rgba(167, 202, 224, 0.4)" stroke="#7EBFDB" stroke-width="4" d="m45 198 35 37v225l-35 35zM1508 205l-33 30v225l33 35zM500 802l30-42h500l40 42z"/><path fill="transparent" stroke="#A7CAE0" stroke-linejoin="round" stroke-width="8" d="M80 47 45 85v690q0 25 25 25h430l30-40h500l40 40h415q25 0 25-25V88l-30-41H980l-45 41v70"/><circle cx="87" cy="41" r="12" fill="none" stroke="#A7CAE0" stroke-width="8"/><circle cx="935" cy="164" r="8" fill="none" stroke="#A7CAE0" stroke-width="8"/><path fill="none" stroke="#AEAEB2" stroke-dasharray="20, 5" stroke-width="3" d="M917 198H265"/><svg xmlns="http://www.w3.org/2000/svg" width="420" x="1010" y="105" viewBox="0 0 256 256"><style>@keyframes Anim{0%{--backplate-fill:rgb(174, 174, 178);--backplate-stroke:rgb(63, 125, 150)}to{--backplate-fill:rgb(215, 0, 21);--backplate-stroke:rgb(194, 6, 24)}}:root{--backplate-stroke:rgb(63, 125, 150);--backplate-fill:rgb(174, 174, 178);--backplate-stroke-f:rgb(63, 125, 150);--backplate-fill-f:rgb(174, 174, 178);--coil-color:rgb(174, 174, 178);--coil-outline:none;--base-color:rgb(68, 68, 70)}</style><defs><g id="coil"><path fill="var(--backplate-fill-f)" stroke="var(--backplate-stroke-f)" d="m100.6 73.7 7.8 11.1c3.6 5.2 3.6 5.2 2.1-1.5l-2.6-12.6Z"/><path fill="var(--coil-color)" stroke="var(--coil-outline)" d="M131 110.8q4.4.5 7.9 3.4l5.1-7.2q-4.9-3.8-11-5Z"/></g><g id="backplate"><use href="#coil"/><path fill="var(--backplate-fill)" stroke="var(--backplate-stroke)" d="m144 11-11 69h-11l-10-69-8 1q-4 1-3 5l8 48 7 24.8q11.5-3.5 23-.3l7-24.5 9-48q1-4-3-5Z"/><path fill="var(--backplate-fill-f)" stroke="var(--backplate-stroke)" d="M125 83c-2 0-2 3 0 3h6c2 0 2-3 0-3Z"/><g id="idk"><path fill="var(--backplate-fill-f)" stroke="var(--backplate-stroke-f)" d="m78 130-5 2H14v-8h59l5 2Z"/><path fill="var(--base-color)" stroke="var(--backplate-stroke-f)" d="M78 126v4H5v-4Z"/></g><path fill="var(--backplate-fill-f)" stroke="var(--backplate-stroke-f)" d="M69 100 26 81q-5.6 2.5-3 8l43 18Z"/><path fill="var(--base-color)" stroke="var(--backplate-stroke-f)" d="m22 86 40.5 16.6 1-2.1-40-17.7"/></g><g id="batch-bars"><use href="#bar-idk"/><use href="#bar-idk" transform="rotate(90 128 128)"/><use href="#bar-idk" transform="rotate(180 128 128)"/><use href="#bar-idk" transform="rotate(270 128 128)"/></g><g id="bars-inside"><use href="#batch-bars"/><use href="#batch-bars" transform="rotate(20 128 128)"/><use href="#batch-bars" transform="rotate(40 128 128)"/><use href="#batch-bars" transform="rotate(60 128 128)"/><use href="#batch-bars" transform="rotate(80 128 128)"/></g><g id="batch-bars-outside"><use href="#bar-idk-outside"/><use href="#bar-idk-outside" transform="rotate(12 128 128)"/><use href="#bar-idk-outside" transform="rotate(22.5 128 128)"/><use href="#bar-idk-outside" transform="rotate(35 128 128)"/></g><g id="bars-outside"><use href="#batch-bars-outside"/><use href="#batch-bars-outside" transform="rotate(90 128 128)"/><use href="#batch-bars-outside" transform="rotate(180 128 128)"/><use href="#batch-bars-outside" transform="rotate(270 128 128)"/></g><path id="bar-idk" fill="var(--backplate-fill-f)" stroke="var(--backplate-stroke-f)" d="M126 91v10q2-.2 4 0V91Z"/><path id="bar-idk-outside" fill="var(--backplate-fill-f)" stroke="var(--backplate-stroke-f)" d="M127 32v-9h2v9z" transform="rotate(5 128 128)"/></defs><circle cx="128" cy="128" r="107.4" fill="none" stroke="var(--backplate-stroke-f)"/><use href="#bars-outside"/><use href="#bars-outside" transform="rotate(45 128 128)"/><circle cx="128" cy="128" r="60" fill="none" stroke="var(--backplate-stroke-f)"/><circle cx="128" cy="128" r="44" fill="none" stroke="var(--backplate-stroke-f)"/><g id="backplates"><use href="#backplate"/><use href="#backplate" transform="rotate(45 128 128)"/><use href="#backplate" transform="rotate(90 128 128)"/><use href="#backplate" transform="rotate(135 128 128)"/><use href="#backplate" transform="rotate(180 128 128)"/><use href="#backplate" transform="rotate(225 128 128)"/><use href="#backplate" transform="rotate(270 128 128)"/><use href="#backplate" transform="rotate(315 128 128)"/></g><circle cx="128" cy="128" r="3" fill="none" stroke="var(--backplate-fill-f)" stroke-width="2"/><circle cx="128" cy="128" r="12" fill="none" stroke="var(--backplate-fill-f)" stroke-width="5"/><circle cx="128" cy="128" r="18" fill="none" stroke="var(--backplate-fill-f)"/><circle cx="128" cy="128" r="26" fill="none" stroke="var(--backplate-fill-f)"/><circle cx="128" cy="128" r="40" fill="none" stroke="var(--backplate-fill-f)"/><use href="#bars-inside"/><use href="#bars-inside" transform="rotate(10 128 128)"/></svg><path fill="none" stroke="#A7CAE0" stroke-width="5" d="M240 505v190h690"/><path fill="none" stroke="#A7CAE0" stroke-dasharray="10, 5" stroke-width="3" d="M240 530h680"/><path fill="none" stroke="#A7CAE0" stroke-dasharray="5, 8" stroke-width="3" d="M240 570h680"/><path fill="none" stroke="#A7CAE0" stroke-dasharray="10, 5" stroke-width="3" d="M240 610h680"/><path fill="none" stroke="#A7CAE0" stroke-dasharray="5, 8" stroke-width="3" d="M240 657h680"/><text x="230" y="560" fill="#A7CAE0" font-family="monospace" font-size="35" text-anchor="end" transform="translate(0 -25)">5</text><text x="230" y="640" fill="#A7CAE0" font-family="monospace" font-size="35" text-anchor="end" transform="translate(0 -25)">2.5</text><text x="230" y="720" fill="#A7CAE0" font-family="monospace" font-size="35" text-anchor="end" transform="translate(0 -25)">0</text><text x="330" y="760" fill="#A7CAE0" font-family="monospace" font-size="30" text-anchor="middle" transform="translate(0 -25)">365 days ago</text><text x="930" y="760" fill="#A7CAE0" font-family="monospace" font-size="30" text-anchor="end" transform="translate(0 -25)">Public commits</text><path fill="none" stroke="#fff" stroke-width="2" d="M246.85 690h9.25l1.85-64h1.84l1.85 64h7.4l1.85-32 1.85-64 1.85 64 1.85-32h1.85l1.85 32 1.85 32h11.09l1.85-160 1.85 160h3.7l1.85-32 1.85 32H333.77l1.85-32 1.85 32H343.01l1.85-96 1.85 96h9.25l1.85-64 1.85 64H387.4l1.85-64 1.85 64H507.6l1.85-32 1.85 32H576.03l1.85-32 1.85 32H648.15l1.85-32 1.85 32H779.45l1.85-32 1.85 32H881.16l1.85-64 1.85 32 1.85 32H920"/><text x="92" y="155" fill="#AEAEB0" font-family="monospace" font-size="80" font-style="italic" font-weight="bold">mattekudacy</text><text x="265" y="205" fill="#AEAEB2" font-family="monospace" font-size="25" font-weight="bold" text-anchor="end">USR_STATS//:</text><text x="1020" y="120" fill="#AEAEB2" font-family="monospace" font-size="50" font-weight="bold">ID: 74973194</text><text x="1020" y="190" fill="#AEAEB2" font-family="monospace" font-size="50" font-weight="bold">Rank: A+</text><text x="165" y="260" fill="#AEAEB2" font-family="monospace" font-size="35" font-weight="bold">Stars Earned --------------------- 0</text><text x="165" y="310" fill="#AEAEB2" font-family="monospace" font-size="35" font-weight="bold">Total Commits ------------------- 30</text><text x="165" y="360" fill="#AEAEB2" font-family="monospace" font-size="35" font-weight="bold">Pull Request --------------------- 0</text><text x="165" y="410" fill="#AEAEB2" font-family="monospace" font-size="35" font-weight="bold">Issues --------------------------- 1</text><text x="165" y="460" fill="#AEAEB2" font-family="monospace" font-size="35" font-weight="bold">Contributes (last year) ---------- 0</text></svg>